<svg width="26" height="23" viewBox="0 0 26 23" fill="none" xmlns="http://www.w3.org/2000/svg">
<path d="M24.0752 0.00235495C23.7541 0.0253618 23.4389 0.0995494 23.1419 0.222024H23.1379C22.8529 0.333336 21.4976 0.894821 19.4371 1.74591L12.0534 4.80847C6.75518 7.00516 1.54699 9.16836 1.54699 9.16836L1.609 9.14472C1.609 9.14472 1.24992 9.26095 0.874831 9.51412C0.643106 9.65933 0.443706 9.84934 0.288697 10.0726C0.104654 10.3386 -0.0433795 10.7454 0.0116331 11.1661C0.101654 11.8773 0.569761 12.3038 0.905838 12.5392C1.24592 12.7776 1.56999 12.8889 1.56999 12.8889H1.57799L6.46212 14.5094C6.68117 15.2019 7.95046 19.3115 8.25553 20.2582C8.43557 20.8236 8.61061 21.1773 8.82966 21.4472C8.93568 21.5851 9.05971 21.7003 9.20875 21.7929C9.28622 21.8373 9.36883 21.8724 9.4548 21.8973L9.40479 21.8855C9.41979 21.8895 9.4318 21.9013 9.4428 21.9052C9.48281 21.9161 9.50982 21.92 9.56083 21.9279C10.334 22.1584 10.9551 21.6855 10.9551 21.6855L10.9902 21.658L13.8738 19.0722L18.7069 22.7238L18.817 22.7701C19.8242 23.2055 20.8444 22.9632 21.3835 22.5357C21.9267 22.1052 22.1377 21.5545 22.1377 21.5545L22.1727 21.4659L25.9076 2.62262C26.0136 2.15767 26.0406 1.72227 25.9236 1.29968C25.8029 0.871993 25.5243 0.504153 25.1424 0.268321C24.8218 0.0763477 24.4499 -0.0163134 24.0752 0.00235495ZM23.9741 2.02173C23.9701 2.08379 23.9821 2.0769 23.9541 2.19609V2.20692L20.2543 20.8542C20.2383 20.8807 20.2113 20.9389 20.1373 20.997C20.0592 21.0581 19.9972 21.0965 19.6721 20.9694L13.7608 16.5061L10.19 19.7115L10.9401 14.993L20.5984 6.12747C20.9965 5.763 20.8634 5.68616 20.8634 5.68616C20.8914 5.23895 20.2623 5.55515 20.2623 5.55515L8.08349 12.9855L8.07949 12.9658L2.24215 11.0301V11.0262L2.22714 11.0232C2.23738 11.0199 2.2474 11.0159 2.25715 11.0114L2.28916 10.9956L2.32016 10.9848C2.32016 10.9848 7.53236 8.82162 12.8306 6.62493C15.4832 5.52461 18.1558 4.41642 20.2113 3.56138C21.4303 3.05605 22.6506 2.55367 23.8721 2.05424C23.9541 2.02272 23.9151 2.02272 23.9741 2.02272V2.02173Z" fill="black"/>
</svg>
