<svg width="28" height="28" viewBox="0 0 28 28" fill="none" xmlns="http://www.w3.org/2000/svg">
<path d="M12.1204 6.51298L7.72257 1.43678C7.21557 0.851817 6.28607 0.854417 5.69718 1.44458L2.0806 5.06746C1.0042 6.1451 0.696104 7.7453 1.3188 9.02833C5.03888 16.7303 11.2508 22.9506 18.948 26.6813C20.2298 27.3039 21.8288 26.9959 22.9052 25.9182L26.5556 22.2615C27.1471 21.6701 27.1484 20.7354 26.5582 20.2285L21.4622 15.8542C20.9292 15.3966 20.1011 15.4564 19.5668 15.992L17.7936 17.7677C17.7028 17.8628 17.5833 17.9256 17.4535 17.9462C17.3236 17.9669 17.1905 17.9444 17.0747 17.8821C14.1763 16.2131 11.772 13.8058 10.1068 10.9054C10.0444 10.7894 10.0218 10.6561 10.0425 10.526C10.0631 10.396 10.1259 10.2762 10.2212 10.1853L11.9891 8.41606C12.5247 7.8779 12.5832 7.04595 12.1204 6.51168V6.51298Z" stroke="black" strokeWidth="2" strokeLinecap="round" stroke-linejoin="round"/>
</svg>
