<svg width="24" height="29" viewBox="0 0 24 29" fill="none" xmlns="http://www.w3.org/2000/svg">
<path d="M11.667 15.6665C13.8761 15.6665 15.667 13.8756 15.667 11.6665C15.667 9.45736 13.8761 7.6665 11.667 7.6665C9.45785 7.6665 7.66699 9.45736 7.66699 11.6665C7.66699 13.8756 9.45785 15.6665 11.667 15.6665Z" stroke="black" strokeWidth="2" strokeLinecap="round" stroke-linejoin="round"/>
<path d="M11.6667 1C8.83769 1 6.12458 2.12381 4.12419 4.12419C2.12381 6.12458 1 8.83769 1 11.6667C1 14.1893 1.536 15.84 3 17.6667L11.6667 27.6667L20.3333 17.6667C21.7973 15.84 22.3333 14.1893 22.3333 11.6667C22.3333 8.83769 21.2095 6.12458 19.2091 4.12419C17.2088 2.12381 14.4956 1 11.6667 1V1Z" stroke="black" strokeWidth="2" strokeLinecap="round" stroke-linejoin="round"/>
</svg>
