<svg width="591" height="750" viewBox="0 0 591 750" fill="none" xmlns="http://www.w3.org/2000/svg">
<g clip-path="url(#clip0_1695_2228)">
<rect x="491.451" y="147.44" width="70" height="70" rx="35" transform="rotate(-61.1437 491.451 147.44)" fill="white"/>
<g filter="url(#filter0_f_1695_2228)">
<circle cx="538.954" cy="134.079" r="14" transform="rotate(12.865 538.954 134.079)" fill="#FF7010"/>
</g>
<circle cx="538.954" cy="134.079" r="14" transform="rotate(12.865 538.954 134.079)" fill="#FF7010"/>
</g>
<rect x="122.335" y="591.4" width="70" height="70" rx="35" transform="rotate(-61.1437 122.335 591.4)" fill="#FF7010"/>
<circle cx="169.839" cy="578.038" r="14" transform="rotate(12.865 169.839 578.038)" fill="white"/>
<path d="M513.355 191.762C512.622 191.762 511.882 191.668 511.135 191.482C510.389 191.295 509.722 191.028 509.135 190.682C508.562 190.322 508.155 189.902 507.915 189.422C507.902 189.168 507.889 188.915 507.875 188.662C507.875 188.408 507.982 188.215 508.195 188.082C508.422 187.935 508.649 187.895 508.875 187.962C509.115 188.015 509.322 188.155 509.495 188.382C509.842 188.808 510.355 189.175 511.035 189.482C511.729 189.788 512.489 189.942 513.315 189.942C514.022 189.942 514.642 189.815 515.175 189.562C515.722 189.308 516.149 188.955 516.455 188.502C516.775 188.035 516.935 187.508 516.935 186.922C516.935 186.108 516.655 185.455 516.095 184.962C515.535 184.468 514.809 184.222 513.915 184.222H512.595C512.342 184.222 512.135 184.135 511.975 183.962C511.815 183.788 511.735 183.575 511.735 183.322C511.735 183.042 511.815 182.815 511.975 182.642C512.135 182.468 512.342 182.382 512.595 182.382H513.615C514.322 182.382 514.915 182.155 515.395 181.702C515.875 181.248 516.115 180.648 516.115 179.902C516.115 179.102 515.835 178.515 515.275 178.142C514.715 177.755 513.995 177.562 513.115 177.562C512.462 177.562 511.849 177.682 511.275 177.922C510.715 178.162 510.222 178.535 509.795 179.042C509.569 179.335 509.335 179.528 509.095 179.622C508.855 179.715 508.609 179.675 508.355 179.502C508.169 179.368 508.042 179.182 507.975 178.942C507.909 178.688 507.949 178.455 508.095 178.242C508.602 177.522 509.269 176.928 510.095 176.462C510.935 175.982 511.942 175.742 513.115 175.742C514.102 175.742 514.969 175.922 515.715 176.282C516.462 176.628 517.049 177.102 517.475 177.702C517.902 178.288 518.115 178.955 518.115 179.702C518.115 180.302 517.982 180.842 517.715 181.322C517.462 181.788 517.135 182.188 516.735 182.522C516.349 182.842 515.942 183.088 515.515 183.262C515.089 183.422 514.715 183.502 514.395 183.502V182.862C514.755 182.862 515.189 182.935 515.695 183.082C516.202 183.215 516.702 183.442 517.195 183.762C517.702 184.082 518.115 184.515 518.435 185.062C518.769 185.595 518.935 186.255 518.935 187.042C518.935 187.922 518.689 188.722 518.195 189.442C517.715 190.148 517.055 190.715 516.215 191.142C515.375 191.555 514.422 191.762 513.355 191.762ZM526.397 191.642C525.424 191.642 524.55 191.402 523.777 190.922C523.004 190.428 522.39 189.768 521.937 188.942C521.497 188.102 521.277 187.155 521.277 186.102C521.277 185.048 521.517 184.102 521.997 183.262C522.49 182.422 523.15 181.762 523.977 181.282C524.817 180.788 525.757 180.542 526.797 180.542C527.837 180.542 528.77 180.788 529.597 181.282C530.424 181.762 531.077 182.422 531.557 183.262C532.05 184.102 532.297 185.048 532.297 186.102H531.517C531.517 187.155 531.29 188.102 530.837 188.942C530.397 189.768 529.79 190.428 529.017 190.922C528.244 191.402 527.37 191.642 526.397 191.642ZM526.797 189.842C527.477 189.842 528.084 189.682 528.617 189.362C529.15 189.028 529.57 188.582 529.877 188.022C530.184 187.448 530.337 186.808 530.337 186.102C530.337 185.382 530.184 184.742 529.877 184.182C529.57 183.608 529.15 183.162 528.617 182.842C528.084 182.508 527.477 182.342 526.797 182.342C526.13 182.342 525.524 182.508 524.977 182.842C524.444 183.162 524.017 183.608 523.697 184.182C523.39 184.742 523.237 185.382 523.237 186.102C523.237 186.808 523.39 187.448 523.697 188.022C524.017 188.582 524.444 189.028 524.977 189.362C525.524 189.682 526.13 189.842 526.797 189.842ZM531.277 191.582C530.984 191.582 530.737 191.488 530.537 191.302C530.35 191.102 530.257 190.855 530.257 190.562V187.502L530.637 185.382L532.297 186.102V190.562C532.297 190.855 532.197 191.102 531.997 191.302C531.81 191.488 531.57 191.582 531.277 191.582ZM544.213 191.322C544.04 191.482 543.793 191.562 543.473 191.562C543.167 191.548 542.927 191.455 542.753 191.282L537.893 186.062L542.473 180.942C542.647 180.755 542.887 180.648 543.193 180.622C543.513 180.595 543.76 180.662 543.933 180.822C544.133 181.008 544.247 181.222 544.273 181.462C544.3 181.688 544.227 181.895 544.053 182.082L540.433 185.962L544.273 190.082C544.447 190.255 544.533 190.462 544.533 190.702C544.533 190.928 544.427 191.135 544.213 191.322ZM536.293 191.582C536 191.582 535.767 191.488 535.593 191.302C535.42 191.102 535.333 190.855 535.333 190.562V181.642C535.333 181.335 535.42 181.088 535.593 180.902C535.767 180.715 536 180.622 536.293 180.622C536.6 180.622 536.847 180.715 537.033 180.902C537.233 181.088 537.333 181.335 537.333 181.642V184.982H539.893V186.862H537.333V190.562C537.333 190.855 537.233 191.102 537.033 191.302C536.847 191.488 536.6 191.582 536.293 191.582ZM550.596 191.642C549.623 191.642 548.75 191.402 547.976 190.922C547.203 190.428 546.59 189.768 546.136 188.942C545.696 188.102 545.476 187.155 545.476 186.102C545.476 185.048 545.716 184.102 546.196 183.262C546.69 182.422 547.35 181.762 548.176 181.282C549.016 180.788 549.956 180.542 550.996 180.542C552.036 180.542 552.97 180.788 553.796 181.282C554.623 181.762 555.276 182.422 555.756 183.262C556.25 184.102 556.496 185.048 556.496 186.102H555.716C555.716 187.155 555.49 188.102 555.036 188.942C554.596 189.768 553.99 190.428 553.216 190.922C552.443 191.402 551.57 191.642 550.596 191.642ZM550.996 189.842C551.676 189.842 552.283 189.682 552.816 189.362C553.35 189.028 553.77 188.582 554.076 188.022C554.383 187.448 554.536 186.808 554.536 186.102C554.536 185.382 554.383 184.742 554.076 184.182C553.77 183.608 553.35 183.162 552.816 182.842C552.283 182.508 551.676 182.342 550.996 182.342C550.33 182.342 549.723 182.508 549.176 182.842C548.643 183.162 548.216 183.608 547.896 184.182C547.59 184.742 547.436 185.382 547.436 186.102C547.436 186.808 547.59 187.448 547.896 188.022C548.216 188.582 548.643 189.028 549.176 189.362C549.723 189.682 550.33 189.842 550.996 189.842ZM555.476 191.582C555.183 191.582 554.936 191.488 554.736 191.302C554.55 191.102 554.456 190.855 554.456 190.562V187.502L554.836 185.382L556.496 186.102V190.562C556.496 190.855 556.396 191.102 556.196 191.302C556.01 191.488 555.77 191.582 555.476 191.582ZM563.272 191.722C562.632 191.722 562.039 191.655 561.492 191.522C560.959 191.388 560.472 191.208 560.032 190.982C559.606 190.742 559.232 190.482 558.912 190.202C558.699 190.002 558.592 189.768 558.592 189.502C558.592 189.222 558.706 188.995 558.932 188.822C559.132 188.662 559.372 188.595 559.652 188.622C559.946 188.635 560.192 188.735 560.392 188.922C560.712 189.202 561.112 189.442 561.592 189.642C562.072 189.828 562.626 189.922 563.252 189.922C563.986 189.922 564.566 189.768 564.992 189.462C565.432 189.142 565.652 188.735 565.652 188.242C565.652 187.802 565.492 187.455 565.172 187.202C564.866 186.935 564.479 186.795 564.012 186.782H562.872C562.579 186.782 562.332 186.702 562.132 186.542C561.932 186.382 561.832 186.188 561.832 185.962C561.832 185.735 561.932 185.548 562.132 185.402C562.332 185.255 562.579 185.182 562.872 185.182H563.992C564.432 185.155 564.759 185.008 564.972 184.742C565.199 184.475 565.312 184.142 565.312 183.742C565.312 183.302 565.126 182.955 564.752 182.702C564.379 182.448 563.839 182.322 563.132 182.322C562.559 182.322 562.039 182.402 561.572 182.562C561.106 182.722 560.719 182.955 560.412 183.262C560.199 183.475 559.966 183.595 559.712 183.622C559.472 183.635 559.239 183.555 559.012 183.382C558.839 183.248 558.759 183.055 558.772 182.802C558.799 182.548 558.912 182.315 559.112 182.102C559.539 181.635 560.112 181.255 560.832 180.962C561.552 180.668 562.306 180.522 563.092 180.522C563.906 180.522 564.626 180.662 565.252 180.942C565.879 181.222 566.372 181.595 566.732 182.062C567.092 182.528 567.272 183.042 567.272 183.602C567.272 184.068 567.146 184.482 566.892 184.842C566.652 185.188 566.326 185.462 565.912 185.662C565.512 185.848 565.066 185.942 564.572 185.942V185.782C565.146 185.782 565.659 185.895 566.112 186.122C566.579 186.348 566.946 186.655 567.212 187.042C567.479 187.415 567.612 187.848 567.612 188.342C567.612 188.982 567.419 189.555 567.032 190.062C566.659 190.568 566.146 190.975 565.492 191.282C564.839 191.575 564.099 191.722 563.272 191.722Z" fill="#313131"/>
<path d="M8.55539 643.922L6.77539 643.062L12.3954 629.642C12.5954 629.175 12.9221 628.942 13.3754 628.942C13.8554 628.942 14.1821 629.175 14.3554 629.642L19.9954 643.102L18.3354 643.922L13.2554 631.602H13.5354L8.55539 643.922ZM6.31539 648.122C6.02206 648.122 5.77539 648.022 5.57539 647.822C5.37539 647.622 5.27539 647.375 5.27539 647.082V643.762C5.27539 643.455 5.37539 643.208 5.57539 643.022C5.77539 642.822 6.02206 642.722 6.31539 642.722H20.3954C20.7021 642.722 20.9487 642.822 21.1354 643.022C21.3354 643.208 21.4354 643.455 21.4354 643.762V647.082C21.4354 647.375 21.3354 647.622 21.1354 647.822C20.9487 648.022 20.7021 648.122 20.3954 648.122C20.1021 648.122 19.8554 648.022 19.6554 647.822C19.4554 647.622 19.3554 647.375 19.3554 647.082V644.562H7.35539V647.082C7.35539 647.375 7.25539 647.622 7.05539 647.822C6.86872 648.022 6.62206 648.122 6.31539 648.122ZM28.7034 644.642C27.6234 644.642 26.67 644.408 25.8434 643.942C25.0167 643.462 24.3634 642.808 23.8834 641.982C23.4167 641.142 23.1834 640.182 23.1834 639.102C23.1834 638.008 23.4167 637.048 23.8834 636.222C24.3634 635.382 25.0167 634.728 25.8434 634.262C26.67 633.782 27.6234 633.542 28.7034 633.542C29.77 633.542 30.7167 633.782 31.5434 634.262C32.37 634.728 33.0167 635.382 33.4834 636.222C33.9634 637.048 34.2034 638.008 34.2034 639.102C34.2034 640.182 33.97 641.142 33.5034 641.982C33.0367 642.808 32.39 643.462 31.5634 643.942C30.7367 644.408 29.7834 644.642 28.7034 644.642ZM28.7034 642.842C29.3967 642.842 30.01 642.682 30.5434 642.362C31.0767 642.042 31.49 641.602 31.7834 641.042C32.09 640.482 32.2434 639.835 32.2434 639.102C32.2434 638.368 32.09 637.722 31.7834 637.162C31.49 636.588 31.0767 636.142 30.5434 635.822C30.01 635.502 29.3967 635.342 28.7034 635.342C28.01 635.342 27.3967 635.502 26.8634 635.822C26.33 636.142 25.91 636.588 25.6034 637.162C25.2967 637.722 25.1434 638.368 25.1434 639.102C25.1434 639.835 25.2967 640.482 25.6034 641.042C25.91 641.602 26.33 642.042 26.8634 642.362C27.3967 642.682 28.01 642.842 28.7034 642.842ZM42.1995 644.642C41.1328 644.642 40.1795 644.402 39.3395 643.922C38.5128 643.428 37.8595 642.768 37.3795 641.942C36.9128 641.102 36.6795 640.155 36.6795 639.102C36.6795 638.022 36.9128 637.062 37.3795 636.222C37.8461 635.382 38.4861 634.728 39.2995 634.262C40.1128 633.782 41.0461 633.542 42.0995 633.542C42.8861 633.542 43.6061 633.695 44.2595 634.002C44.9128 634.295 45.4995 634.742 46.0195 635.342C46.2061 635.555 46.2728 635.775 46.2195 636.002C46.1661 636.228 46.0195 636.428 45.7795 636.602C45.5928 636.735 45.3861 636.782 45.1595 636.742C44.9328 636.688 44.7261 636.568 44.5395 636.382C43.8861 635.688 43.0728 635.342 42.0995 635.342C41.4195 635.342 40.8195 635.502 40.2995 635.822C39.7795 636.128 39.3728 636.562 39.0795 637.122C38.7861 637.682 38.6395 638.342 38.6395 639.102C38.6395 639.822 38.7861 640.462 39.0795 641.022C39.3861 641.582 39.8061 642.028 40.3395 642.362C40.8728 642.682 41.4928 642.842 42.1995 642.842C42.6661 642.842 43.0728 642.788 43.4195 642.682C43.7795 642.562 44.1061 642.382 44.3995 642.142C44.6128 641.968 44.8328 641.875 45.0595 641.862C45.2861 641.835 45.4861 641.895 45.6595 642.042C45.8861 642.228 46.0128 642.442 46.0395 642.682C46.0661 642.908 45.9861 643.115 45.7995 643.302C44.8395 644.195 43.6395 644.642 42.1995 644.642ZM63.6112 644.582C63.3178 644.582 63.0712 644.488 62.8712 644.302C62.6845 644.102 62.5912 643.855 62.5912 643.562V637.842C62.5912 637.002 62.3845 636.382 61.9712 635.982C61.5578 635.568 61.0178 635.362 60.3512 635.362C59.6578 635.362 59.0845 635.602 58.6312 636.082C58.1912 636.562 57.9712 637.175 57.9712 637.922H56.3112C56.3112 637.055 56.4978 636.295 56.8712 635.642C57.2445 634.975 57.7645 634.455 58.4312 634.082C59.1112 633.708 59.8845 633.522 60.7512 633.522C61.5112 633.522 62.1845 633.688 62.7712 634.022C63.3578 634.355 63.8112 634.848 64.1312 635.502C64.4645 636.142 64.6312 636.922 64.6312 637.842V643.562C64.6312 643.855 64.5378 644.102 64.3512 644.302C64.1645 644.488 63.9178 644.582 63.6112 644.582ZM50.2712 644.582C49.9778 644.582 49.7312 644.488 49.5312 644.302C49.3445 644.102 49.2512 643.855 49.2512 643.562V634.662C49.2512 634.355 49.3445 634.108 49.5312 633.922C49.7312 633.735 49.9778 633.642 50.2712 633.642C50.5778 633.642 50.8245 633.735 51.0112 633.922C51.1978 634.108 51.2912 634.355 51.2912 634.662V643.562C51.2912 643.855 51.1978 644.102 51.0112 644.302C50.8245 644.488 50.5778 644.582 50.2712 644.582ZM56.9512 644.582C56.6578 644.582 56.4112 644.488 56.2112 644.302C56.0245 644.102 55.9312 643.855 55.9312 643.562V637.842C55.9312 637.002 55.7245 636.382 55.3112 635.982C54.8978 635.568 54.3578 635.362 53.6912 635.362C52.9978 635.362 52.4245 635.602 51.9712 636.082C51.5178 636.562 51.2912 637.175 51.2912 637.922H50.0312C50.0312 637.055 50.2045 636.295 50.5512 635.642C50.8978 634.975 51.3778 634.455 51.9912 634.082C52.6045 633.708 53.3045 633.522 54.0912 633.522C54.8512 633.522 55.5245 633.688 56.1112 634.022C56.6978 634.355 57.1512 634.848 57.4712 635.502C57.8045 636.142 57.9712 636.922 57.9712 637.842V643.562C57.9712 643.855 57.8778 644.102 57.6912 644.302C57.5045 644.488 57.2578 644.582 56.9512 644.582ZM72.5807 644.642C71.6074 644.642 70.734 644.402 69.9607 643.922C69.1874 643.428 68.574 642.768 68.1207 641.942C67.6807 641.102 67.4607 640.155 67.4607 639.102C67.4607 638.048 67.7007 637.102 68.1807 636.262C68.674 635.422 69.334 634.762 70.1607 634.282C71.0007 633.788 71.9407 633.542 72.9807 633.542C74.0207 633.542 74.954 633.788 75.7807 634.282C76.6074 634.762 77.2607 635.422 77.7407 636.262C78.234 637.102 78.4807 638.048 78.4807 639.102H77.7007C77.7007 640.155 77.474 641.102 77.0207 641.942C76.5807 642.768 75.974 643.428 75.2007 643.922C74.4274 644.402 73.554 644.642 72.5807 644.642ZM72.9807 642.842C73.6607 642.842 74.2674 642.682 74.8007 642.362C75.334 642.028 75.754 641.582 76.0607 641.022C76.3674 640.448 76.5207 639.808 76.5207 639.102C76.5207 638.382 76.3674 637.742 76.0607 637.182C75.754 636.608 75.334 636.162 74.8007 635.842C74.2674 635.508 73.6607 635.342 72.9807 635.342C72.314 635.342 71.7074 635.508 71.1607 635.842C70.6274 636.162 70.2007 636.608 69.8807 637.182C69.574 637.742 69.4207 638.382 69.4207 639.102C69.4207 639.808 69.574 640.448 69.8807 641.022C70.2007 641.582 70.6274 642.028 71.1607 642.362C71.7074 642.682 72.314 642.842 72.9807 642.842ZM77.4607 644.582C77.1674 644.582 76.9207 644.488 76.7207 644.302C76.534 644.102 76.4407 643.855 76.4407 643.562V640.502L76.8207 638.382L78.4807 639.102V643.562C78.4807 643.855 78.3807 644.102 78.1807 644.302C77.994 644.488 77.754 644.582 77.4607 644.582ZM82.5368 644.562C82.2435 644.562 81.9968 644.468 81.7968 644.282C81.6101 644.082 81.5168 643.835 81.5168 643.542V634.622C81.5435 634.328 81.6501 634.088 81.8368 633.902C82.0235 633.715 82.2568 633.622 82.5368 633.622C82.8435 633.622 83.0901 633.715 83.2768 633.902C83.4635 634.088 83.5568 634.335 83.5568 634.642V638.082H87.4368V638.482C88.1701 638.482 88.8168 638.608 89.3768 638.862C89.9501 639.115 90.3968 639.468 90.7168 639.922C91.0368 640.362 91.1968 640.875 91.1968 641.462C91.1968 642.062 91.0368 642.595 90.7168 643.062C90.3968 643.528 89.9501 643.895 89.3768 644.162C88.8168 644.428 88.1701 644.562 87.4368 644.562H82.5368ZM83.5568 642.662H87.4368C87.9701 642.662 88.4035 642.535 88.7368 642.282C89.0701 642.015 89.2368 641.675 89.2368 641.262C89.2368 640.822 89.0701 640.462 88.7368 640.182C88.4035 639.902 87.9701 639.762 87.4368 639.762H83.5568V642.662ZM85.8568 639.162V638.082H87.7568C88.0901 638.082 88.3635 637.955 88.5768 637.702C88.7901 637.435 88.8968 637.102 88.8968 636.702C88.8968 636.355 88.7701 636.068 88.5168 635.842C88.2635 635.615 87.9435 635.502 87.5568 635.502H82.5568V633.622H87.5568C88.1835 633.622 88.7368 633.748 89.2168 634.002C89.7101 634.242 90.0968 634.582 90.3768 635.022C90.6568 635.448 90.7968 635.942 90.7968 636.502C90.7968 637.275 90.5035 637.915 89.9168 638.422C89.3435 638.915 88.6235 639.162 87.7568 639.162H85.8568ZM102.584 644.322C102.411 644.482 102.164 644.562 101.844 644.562C101.538 644.548 101.298 644.455 101.124 644.282L96.2643 639.062L100.844 633.942C101.018 633.755 101.258 633.648 101.564 633.622C101.884 633.595 102.131 633.662 102.304 633.822C102.504 634.008 102.618 634.222 102.644 634.462C102.671 634.688 102.598 634.895 102.424 635.082L98.8043 638.962L102.644 643.082C102.818 643.255 102.904 643.462 102.904 643.702C102.904 643.928 102.798 644.135 102.584 644.322ZM94.6643 644.582C94.371 644.582 94.1376 644.488 93.9643 644.302C93.791 644.102 93.7043 643.855 93.7043 643.562V634.642C93.7043 634.335 93.791 634.088 93.9643 633.902C94.1376 633.715 94.371 633.622 94.6643 633.622C94.971 633.622 95.2176 633.715 95.4043 633.902C95.6043 634.088 95.7043 634.335 95.7043 634.642V637.982H98.2643V639.862H95.7043V643.562C95.7043 643.855 95.6043 644.102 95.4043 644.302C95.2176 644.488 94.971 644.582 94.6643 644.582ZM108.967 644.642C107.994 644.642 107.121 644.402 106.347 643.922C105.574 643.428 104.961 642.768 104.507 641.942C104.067 641.102 103.847 640.155 103.847 639.102C103.847 638.048 104.087 637.102 104.567 636.262C105.061 635.422 105.721 634.762 106.547 634.282C107.387 633.788 108.327 633.542 109.367 633.542C110.407 633.542 111.341 633.788 112.167 634.282C112.994 634.762 113.647 635.422 114.127 636.262C114.621 637.102 114.867 638.048 114.867 639.102H114.087C114.087 640.155 113.861 641.102 113.407 641.942C112.967 642.768 112.361 643.428 111.587 643.922C110.814 644.402 109.941 644.642 108.967 644.642ZM109.367 642.842C110.047 642.842 110.654 642.682 111.187 642.362C111.721 642.028 112.141 641.582 112.447 641.022C112.754 640.448 112.907 639.808 112.907 639.102C112.907 638.382 112.754 637.742 112.447 637.182C112.141 636.608 111.721 636.162 111.187 635.842C110.654 635.508 110.047 635.342 109.367 635.342C108.701 635.342 108.094 635.508 107.547 635.842C107.014 636.162 106.587 636.608 106.267 637.182C105.961 637.742 105.807 638.382 105.807 639.102C105.807 639.808 105.961 640.448 106.267 641.022C106.587 641.582 107.014 642.028 107.547 642.362C108.094 642.682 108.701 642.842 109.367 642.842ZM113.847 644.582C113.554 644.582 113.307 644.488 113.107 644.302C112.921 644.102 112.827 643.855 112.827 643.562V640.502L113.207 638.382L114.867 639.102V643.562C114.867 643.855 114.767 644.102 114.567 644.302C114.381 644.488 114.141 644.582 113.847 644.582ZM124.783 644.562C124.49 644.562 124.243 644.468 124.043 644.282C123.856 644.082 123.763 643.835 123.763 643.542V634.622C123.79 634.328 123.896 634.088 124.083 633.902C124.27 633.715 124.503 633.622 124.783 633.622C125.09 633.622 125.336 633.715 125.523 633.902C125.71 634.088 125.803 634.335 125.803 634.642V638.082H129.683V638.482C130.416 638.482 131.063 638.608 131.623 638.862C132.196 639.115 132.643 639.468 132.963 639.922C133.283 640.362 133.443 640.875 133.443 641.462C133.443 642.062 133.283 642.595 132.963 643.062C132.643 643.528 132.196 643.895 131.623 644.162C131.063 644.428 130.416 644.562 129.683 644.562H124.783ZM125.803 642.662H129.683C130.216 642.662 130.65 642.535 130.983 642.282C131.316 642.015 131.483 641.675 131.483 641.262C131.483 640.822 131.316 640.462 130.983 640.182C130.65 639.902 130.216 639.762 129.683 639.762H125.803V642.662ZM128.103 639.162V638.082H130.003C130.336 638.082 130.61 637.955 130.823 637.702C131.036 637.435 131.143 637.102 131.143 636.702C131.143 636.355 131.016 636.068 130.763 635.842C130.51 635.615 130.19 635.502 129.803 635.502H124.803V633.622H129.803C130.43 633.622 130.983 633.748 131.463 634.002C131.956 634.242 132.343 634.582 132.623 635.022C132.903 635.448 133.043 635.942 133.043 636.502C133.043 637.275 132.75 637.915 132.163 638.422C131.59 638.915 130.87 639.162 130.003 639.162H128.103ZM140.51 644.642C139.537 644.642 138.664 644.402 137.89 643.922C137.117 643.428 136.504 642.768 136.05 641.942C135.61 641.102 135.39 640.155 135.39 639.102C135.39 638.048 135.63 637.102 136.11 636.262C136.604 635.422 137.264 634.762 138.09 634.282C138.93 633.788 139.87 633.542 140.91 633.542C141.95 633.542 142.884 633.788 143.71 634.282C144.537 634.762 145.19 635.422 145.67 636.262C146.164 637.102 146.41 638.048 146.41 639.102H145.63C145.63 640.155 145.404 641.102 144.95 641.942C144.51 642.768 143.904 643.428 143.13 643.922C142.357 644.402 141.484 644.642 140.51 644.642ZM140.91 642.842C141.59 642.842 142.197 642.682 142.73 642.362C143.264 642.028 143.684 641.582 143.99 641.022C144.297 640.448 144.45 639.808 144.45 639.102C144.45 638.382 144.297 637.742 143.99 637.182C143.684 636.608 143.264 636.162 142.73 635.842C142.197 635.508 141.59 635.342 140.91 635.342C140.244 635.342 139.637 635.508 139.09 635.842C138.557 636.162 138.13 636.608 137.81 637.182C137.504 637.742 137.35 638.382 137.35 639.102C137.35 639.808 137.504 640.448 137.81 641.022C138.13 641.582 138.557 642.028 139.09 642.362C139.637 642.682 140.244 642.842 140.91 642.842ZM145.39 644.582C145.097 644.582 144.85 644.488 144.65 644.302C144.464 644.102 144.37 643.855 144.37 643.562V640.502L144.75 638.382L146.41 639.102V643.562C146.41 643.855 146.31 644.102 146.11 644.302C145.924 644.488 145.684 644.582 145.39 644.582ZM159.766 644.682C159.006 644.682 158.333 644.515 157.746 644.182C157.16 643.848 156.7 643.362 156.366 642.722C156.046 642.068 155.886 641.282 155.886 640.362V634.642C155.886 634.335 155.98 634.088 156.166 633.902C156.366 633.715 156.613 633.622 156.906 633.622C157.213 633.622 157.46 633.715 157.646 633.902C157.833 634.088 157.926 634.335 157.926 634.642V640.362C157.926 640.922 158.02 641.388 158.206 641.762C158.393 642.122 158.653 642.395 158.986 642.582C159.333 642.755 159.726 642.842 160.166 642.842C160.873 642.842 161.446 642.602 161.886 642.122C162.34 641.642 162.566 641.035 162.566 640.302H163.426C163.426 641.155 163.266 641.915 162.946 642.582C162.64 643.235 162.213 643.748 161.666 644.122C161.12 644.495 160.486 644.682 159.766 644.682ZM153.106 644.682C152.346 644.682 151.673 644.515 151.086 644.182C150.513 643.848 150.06 643.362 149.726 642.722C149.393 642.068 149.226 641.282 149.226 640.362V634.642C149.226 634.335 149.32 634.088 149.506 633.902C149.706 633.715 149.953 633.622 150.246 633.622C150.553 633.622 150.8 633.715 150.986 633.902C151.173 634.088 151.266 634.335 151.266 634.642V640.362C151.266 640.922 151.36 641.388 151.546 641.762C151.746 642.122 152.013 642.395 152.346 642.582C152.68 642.755 153.066 642.842 153.506 642.842C154.213 642.842 154.786 642.602 155.226 642.122C155.666 641.642 155.886 641.035 155.886 640.302H156.746C156.746 641.155 156.593 641.915 156.286 642.582C155.98 643.235 155.553 643.748 155.006 644.122C154.46 644.495 153.826 644.682 153.106 644.682ZM163.586 644.562C163.293 644.562 163.046 644.468 162.846 644.282C162.66 644.082 162.566 643.835 162.566 643.542V634.642C162.566 634.335 162.66 634.088 162.846 633.902C163.046 633.715 163.293 633.622 163.586 633.622C163.893 633.622 164.14 633.715 164.326 633.902C164.513 634.088 164.606 634.335 164.606 634.642V643.542C164.606 643.835 164.513 644.082 164.326 644.282C164.14 644.468 163.893 644.562 163.586 644.562ZM173.356 644.642C172.249 644.642 171.263 644.408 170.396 643.942C169.543 643.462 168.869 642.808 168.376 641.982C167.896 641.142 167.656 640.182 167.656 639.102C167.656 638.008 167.883 637.048 168.336 636.222C168.803 635.382 169.443 634.728 170.256 634.262C171.069 633.782 172.003 633.542 173.056 633.542C174.096 633.542 174.989 633.775 175.736 634.242C176.483 634.695 177.049 635.328 177.436 636.142C177.836 636.942 178.036 637.868 178.036 638.922C178.036 639.175 177.949 639.388 177.776 639.562C177.603 639.722 177.383 639.802 177.116 639.802H169.056V638.202H177.056L176.236 638.762C176.223 638.095 176.089 637.502 175.836 636.982C175.583 636.448 175.223 636.028 174.756 635.722C174.289 635.415 173.723 635.262 173.056 635.262C172.296 635.262 171.643 635.428 171.096 635.762C170.563 636.095 170.156 636.555 169.876 637.142C169.596 637.715 169.456 638.368 169.456 639.102C169.456 639.835 169.623 640.488 169.956 641.062C170.289 641.635 170.749 642.088 171.336 642.422C171.923 642.755 172.596 642.922 173.356 642.922C173.769 642.922 174.189 642.848 174.616 642.702C175.056 642.542 175.409 642.362 175.676 642.162C175.876 642.015 176.089 641.942 176.316 641.942C176.556 641.928 176.763 641.995 176.936 642.142C177.163 642.342 177.283 642.562 177.296 642.802C177.309 643.042 177.203 643.248 176.976 643.422C176.523 643.782 175.956 644.075 175.276 644.302C174.609 644.528 173.969 644.642 173.356 644.642ZM185.238 644.662C184.318 644.662 183.491 644.468 182.758 644.082C182.038 643.682 181.465 643.102 181.038 642.342C180.625 641.582 180.418 640.648 180.418 639.542V634.622C180.418 634.328 180.511 634.088 180.698 633.902C180.898 633.702 181.145 633.602 181.438 633.602C181.731 633.602 181.971 633.702 182.158 633.902C182.358 634.088 182.458 634.328 182.458 634.622V639.542C182.458 640.288 182.598 640.908 182.878 641.402C183.158 641.882 183.538 642.242 184.018 642.482C184.498 642.708 185.038 642.822 185.638 642.822C186.211 642.822 186.718 642.708 187.158 642.482C187.611 642.255 187.971 641.948 188.238 641.562C188.505 641.175 188.638 640.742 188.638 640.262H189.898C189.898 641.088 189.691 641.835 189.278 642.502C188.878 643.168 188.325 643.695 187.618 644.082C186.925 644.468 186.131 644.662 185.238 644.662ZM189.658 644.562C189.365 644.562 189.118 644.468 188.918 644.282C188.731 644.082 188.638 643.835 188.638 643.542V634.622C188.638 634.315 188.731 634.068 188.918 633.882C189.118 633.695 189.365 633.602 189.658 633.602C189.965 633.602 190.211 633.695 190.398 633.882C190.585 634.068 190.678 634.315 190.678 634.622V643.542C190.678 643.835 190.585 644.082 190.398 644.282C190.211 644.468 189.965 644.562 189.658 644.562ZM185.658 632.182C184.978 632.182 184.365 632.068 183.818 631.842C183.271 631.602 182.838 631.282 182.518 630.882C182.198 630.468 182.038 630.008 182.038 629.502C182.038 629.222 182.125 628.988 182.298 628.802C182.471 628.615 182.685 628.522 182.938 628.522C183.205 628.522 183.418 628.615 183.578 628.802C183.751 628.988 183.838 629.222 183.838 629.502C183.838 629.835 184.011 630.122 184.358 630.362C184.705 630.588 185.138 630.702 185.658 630.702C186.178 630.702 186.611 630.588 186.958 630.362C187.305 630.122 187.478 629.835 187.478 629.502C187.478 629.222 187.565 628.988 187.738 628.802C187.911 628.615 188.125 628.522 188.378 628.522C188.645 628.522 188.858 628.615 189.018 628.802C189.191 628.988 189.278 629.222 189.278 629.502C189.278 630.008 189.118 630.468 188.798 630.882C188.478 631.282 188.045 631.602 187.498 631.842C186.965 632.068 186.351 632.182 185.658 632.182ZM203.51 644.642C202.67 644.642 201.917 644.515 201.25 644.262C200.597 643.995 200.077 643.628 199.69 643.162C199.317 642.695 199.13 642.162 199.13 641.562C199.13 640.962 199.297 640.448 199.63 640.022C199.977 639.595 200.47 639.235 201.11 638.942C201.763 638.648 202.543 638.415 203.45 638.242C204.357 638.055 204.97 637.835 205.29 637.582C205.61 637.315 205.77 636.975 205.77 636.562C205.77 636.135 205.557 635.822 205.13 635.622C204.703 635.408 204.21 635.302 203.65 635.302C203.183 635.302 202.717 635.375 202.25 635.522C201.797 635.668 201.417 635.882 201.11 636.162C200.91 636.348 200.69 636.475 200.45 636.542C200.21 636.608 200.017 636.595 199.87 636.502C199.617 636.342 199.457 636.135 199.39 635.882C199.337 635.628 199.397 635.395 199.57 635.182C199.97 634.688 200.53 634.295 201.25 634.002C201.983 633.695 202.79 633.542 203.67 633.542C204.417 633.542 205.097 633.662 205.71 633.902C206.323 634.128 206.81 634.468 207.17 634.922C207.543 635.375 207.73 635.935 207.73 636.602C207.73 637.375 207.417 638.028 206.79 638.562C206.163 639.082 205.21 639.482 203.93 639.762C202.877 639.975 202.15 640.228 201.75 640.522C201.35 640.802 201.157 641.142 201.17 641.542C201.183 641.955 201.383 642.275 201.77 642.502C202.157 642.728 202.737 642.842 203.51 642.842C204.203 642.842 204.79 642.775 205.27 642.642C205.763 642.495 206.15 642.275 206.43 641.982C206.617 641.782 206.83 641.648 207.07 641.582C207.31 641.515 207.557 641.588 207.81 641.802C208.037 641.988 208.15 642.202 208.15 642.442C208.15 642.682 208.05 642.908 207.85 643.122C207.41 643.562 206.797 643.928 206.01 644.222C205.223 644.502 204.39 644.642 203.51 644.642ZM215.617 644.642C214.537 644.642 213.584 644.408 212.757 643.942C211.931 643.462 211.277 642.808 210.797 641.982C210.331 641.142 210.097 640.182 210.097 639.102C210.097 638.008 210.331 637.048 210.797 636.222C211.277 635.382 211.931 634.728 212.757 634.262C213.584 633.782 214.537 633.542 215.617 633.542C216.684 633.542 217.631 633.782 218.457 634.262C219.284 634.728 219.931 635.382 220.397 636.222C220.877 637.048 221.117 638.008 221.117 639.102C221.117 640.182 220.884 641.142 220.417 641.982C219.951 642.808 219.304 643.462 218.477 643.942C217.651 644.408 216.697 644.642 215.617 644.642ZM215.617 642.842C216.311 642.842 216.924 642.682 217.457 642.362C217.991 642.042 218.404 641.602 218.697 641.042C219.004 640.482 219.157 639.835 219.157 639.102C219.157 638.368 219.004 637.722 218.697 637.162C218.404 636.588 217.991 636.142 217.457 635.822C216.924 635.502 216.311 635.342 215.617 635.342C214.924 635.342 214.311 635.502 213.777 635.822C213.244 636.142 212.824 636.588 212.517 637.162C212.211 637.722 212.057 638.368 212.057 639.102C212.057 639.835 212.211 640.482 212.517 641.042C212.824 641.602 213.244 642.042 213.777 642.362C214.311 642.682 214.924 642.842 215.617 642.842ZM225.174 649.242C224.88 649.242 224.634 649.142 224.434 648.942C224.247 648.755 224.154 648.515 224.154 648.222V639.102C224.167 638.048 224.414 637.102 224.894 636.262C225.374 635.422 226.027 634.762 226.854 634.282C227.68 633.788 228.614 633.542 229.654 633.542C230.707 633.542 231.647 633.788 232.474 634.282C233.3 634.762 233.954 635.422 234.434 636.262C234.927 637.102 235.174 638.048 235.174 639.102C235.174 640.155 234.947 641.102 234.494 641.942C234.054 642.768 233.447 643.428 232.674 643.922C231.9 644.402 231.027 644.642 230.054 644.642C229.267 644.642 228.54 644.482 227.874 644.162C227.22 643.828 226.66 643.382 226.194 642.822V648.222C226.194 648.515 226.1 648.755 225.914 648.942C225.727 649.142 225.48 649.242 225.174 649.242ZM229.654 642.842C230.334 642.842 230.94 642.682 231.474 642.362C232.007 642.028 232.427 641.582 232.734 641.022C233.054 640.448 233.214 639.808 233.214 639.102C233.214 638.382 233.054 637.742 232.734 637.182C232.427 636.608 232.007 636.162 231.474 635.842C230.94 635.508 230.334 635.342 229.654 635.342C228.987 635.342 228.38 635.508 227.834 635.842C227.3 636.162 226.88 636.608 226.574 637.182C226.267 637.742 226.114 638.382 226.114 639.102C226.114 639.808 226.267 640.448 226.574 641.022C226.88 641.582 227.3 642.028 227.834 642.362C228.38 642.682 228.987 642.842 229.654 642.842ZM245.136 644.562C244.856 644.562 244.623 644.468 244.436 644.282C244.249 644.082 244.156 643.835 244.156 643.542V640.902H241.336V640.642C240.629 640.642 240.003 640.502 239.456 640.222C238.909 639.942 238.483 639.555 238.176 639.062C237.869 638.568 237.716 637.995 237.716 637.342C237.716 636.635 237.883 636.002 238.216 635.442C238.563 634.882 239.029 634.442 239.616 634.122C240.216 633.788 240.903 633.622 241.676 633.622H245.136C245.443 633.622 245.689 633.715 245.876 633.902C246.063 634.088 246.156 634.335 246.156 634.642V643.562C246.143 643.855 246.043 644.095 245.856 644.282C245.683 644.468 245.443 644.562 245.136 644.562ZM238.036 644.322C237.823 644.135 237.723 643.928 237.736 643.702C237.749 643.475 237.829 643.268 237.976 643.082L240.416 639.902H243.076L239.656 644.162C239.429 644.455 239.149 644.595 238.816 644.582C238.483 644.568 238.223 644.482 238.036 644.322ZM241.676 639.222H244.156V635.522H241.676C241.143 635.522 240.676 635.695 240.276 636.042C239.876 636.375 239.676 636.808 239.676 637.342C239.676 637.902 239.876 638.355 240.276 638.702C240.676 639.048 241.143 639.222 241.676 639.222ZM253.079 641.282C252.119 641.282 251.326 641.062 250.699 640.622C250.072 640.182 249.606 639.582 249.299 638.822C249.006 638.048 248.859 637.162 248.859 636.162V634.642C248.859 634.335 248.952 634.088 249.139 633.902C249.339 633.715 249.586 633.622 249.879 633.622C250.186 633.622 250.432 633.715 250.619 633.902C250.806 634.088 250.899 634.335 250.899 634.642V636.162C250.899 637.122 251.086 637.908 251.459 638.522C251.846 639.135 252.519 639.442 253.479 639.442C254.239 639.442 254.859 639.315 255.339 639.062C255.832 638.808 256.079 638.482 256.079 638.082H257.139C257.139 638.708 256.966 639.262 256.619 639.742C256.272 640.222 255.792 640.602 255.179 640.882C254.579 641.148 253.879 641.282 253.079 641.282ZM257.099 644.562C256.806 644.562 256.559 644.468 256.359 644.282C256.172 644.082 256.079 643.835 256.079 643.542V634.642C256.079 634.335 256.172 634.088 256.359 633.902C256.559 633.715 256.806 633.622 257.099 633.622C257.406 633.622 257.652 633.715 257.839 633.902C258.026 634.088 258.119 634.335 258.119 634.642V643.542C258.119 643.835 258.026 644.082 257.839 644.282C257.652 644.468 257.406 644.562 257.099 644.562ZM266.852 644.642C265.745 644.642 264.759 644.408 263.892 643.942C263.039 643.462 262.365 642.808 261.872 641.982C261.392 641.142 261.152 640.182 261.152 639.102C261.152 638.008 261.379 637.048 261.832 636.222C262.299 635.382 262.939 634.728 263.752 634.262C264.565 633.782 265.499 633.542 266.552 633.542C267.592 633.542 268.485 633.775 269.232 634.242C269.979 634.695 270.545 635.328 270.932 636.142C271.332 636.942 271.532 637.868 271.532 638.922C271.532 639.175 271.445 639.388 271.272 639.562C271.099 639.722 270.879 639.802 270.612 639.802H262.552V638.202H270.552L269.732 638.762C269.719 638.095 269.585 637.502 269.332 636.982C269.079 636.448 268.719 636.028 268.252 635.722C267.785 635.415 267.219 635.262 266.552 635.262C265.792 635.262 265.139 635.428 264.592 635.762C264.059 636.095 263.652 636.555 263.372 637.142C263.092 637.715 262.952 638.368 262.952 639.102C262.952 639.835 263.119 640.488 263.452 641.062C263.785 641.635 264.245 642.088 264.832 642.422C265.419 642.755 266.092 642.922 266.852 642.922C267.265 642.922 267.685 642.848 268.112 642.702C268.552 642.542 268.905 642.362 269.172 642.162C269.372 642.015 269.585 641.942 269.812 641.942C270.052 641.928 270.259 641.995 270.432 642.142C270.659 642.342 270.779 642.562 270.792 642.802C270.805 643.042 270.699 643.248 270.472 643.422C270.019 643.782 269.452 644.075 268.772 644.302C268.105 644.528 267.465 644.642 266.852 644.642ZM278.734 644.662C277.814 644.662 276.987 644.468 276.254 644.082C275.534 643.682 274.961 643.102 274.534 642.342C274.121 641.582 273.914 640.648 273.914 639.542V634.622C273.914 634.328 274.007 634.088 274.194 633.902C274.394 633.702 274.641 633.602 274.934 633.602C275.227 633.602 275.467 633.702 275.654 633.902C275.854 634.088 275.954 634.328 275.954 634.622V639.542C275.954 640.288 276.094 640.908 276.374 641.402C276.654 641.882 277.034 642.242 277.514 642.482C277.994 642.708 278.534 642.822 279.134 642.822C279.707 642.822 280.214 642.708 280.654 642.482C281.107 642.255 281.467 641.948 281.734 641.562C282.001 641.175 282.134 640.742 282.134 640.262H283.394C283.394 641.088 283.187 641.835 282.774 642.502C282.374 643.168 281.821 643.695 281.114 644.082C280.421 644.468 279.627 644.662 278.734 644.662ZM283.154 644.562C282.861 644.562 282.614 644.468 282.414 644.282C282.227 644.082 282.134 643.835 282.134 643.542V634.622C282.134 634.315 282.227 634.068 282.414 633.882C282.614 633.695 282.861 633.602 283.154 633.602C283.461 633.602 283.707 633.695 283.894 633.882C284.081 634.068 284.174 634.315 284.174 634.622V643.542C284.174 643.835 284.081 644.082 283.894 644.282C283.707 644.468 283.461 644.562 283.154 644.562ZM279.154 632.182C278.474 632.182 277.861 632.068 277.314 631.842C276.767 631.602 276.334 631.282 276.014 630.882C275.694 630.468 275.534 630.008 275.534 629.502C275.534 629.222 275.621 628.988 275.794 628.802C275.967 628.615 276.181 628.522 276.434 628.522C276.701 628.522 276.914 628.615 277.074 628.802C277.247 628.988 277.334 629.222 277.334 629.502C277.334 629.835 277.507 630.122 277.854 630.362C278.201 630.588 278.634 630.702 279.154 630.702C279.674 630.702 280.107 630.588 280.454 630.362C280.801 630.122 280.974 629.835 280.974 629.502C280.974 629.222 281.061 628.988 281.234 628.802C281.407 628.615 281.621 628.522 281.874 628.522C282.141 628.522 282.354 628.615 282.514 628.802C282.687 628.988 282.774 629.222 282.774 629.502C282.774 630.008 282.614 630.468 282.294 630.882C281.974 631.282 281.541 631.602 280.994 631.842C280.461 632.068 279.847 632.182 279.154 632.182ZM298.766 644.642C297.66 644.642 296.673 644.408 295.806 643.942C294.953 643.462 294.28 642.808 293.786 641.982C293.306 641.142 293.066 640.182 293.066 639.102C293.066 638.008 293.293 637.048 293.746 636.222C294.213 635.382 294.853 634.728 295.666 634.262C296.48 633.782 297.413 633.542 298.466 633.542C299.506 633.542 300.4 633.775 301.146 634.242C301.893 634.695 302.46 635.328 302.846 636.142C303.246 636.942 303.446 637.868 303.446 638.922C303.446 639.175 303.36 639.388 303.186 639.562C303.013 639.722 302.793 639.802 302.526 639.802H294.466V638.202H302.466L301.646 638.762C301.633 638.095 301.5 637.502 301.246 636.982C300.993 636.448 300.633 636.028 300.166 635.722C299.7 635.415 299.133 635.262 298.466 635.262C297.706 635.262 297.053 635.428 296.506 635.762C295.973 636.095 295.566 636.555 295.286 637.142C295.006 637.715 294.866 638.368 294.866 639.102C294.866 639.835 295.033 640.488 295.366 641.062C295.7 641.635 296.16 642.088 296.746 642.422C297.333 642.755 298.006 642.922 298.766 642.922C299.18 642.922 299.6 642.848 300.026 642.702C300.466 642.542 300.82 642.362 301.086 642.162C301.286 642.015 301.5 641.942 301.726 641.942C301.966 641.928 302.173 641.995 302.346 642.142C302.573 642.342 302.693 642.562 302.706 642.802C302.72 643.042 302.613 643.248 302.386 643.422C301.933 643.782 301.366 644.075 300.686 644.302C300.02 644.528 299.38 644.642 298.766 644.642ZM310.217 644.642C309.217 644.642 308.331 644.408 307.557 643.942C306.797 643.462 306.197 642.808 305.757 641.982C305.317 641.142 305.097 640.182 305.097 639.102C305.097 638.008 305.331 637.048 305.797 636.222C306.277 635.382 306.931 634.728 307.757 634.262C308.584 633.782 309.537 633.542 310.617 633.542C311.684 633.542 312.631 633.782 313.457 634.262C314.284 634.728 314.931 635.382 315.397 636.222C315.877 637.048 316.117 638.008 316.117 639.102H314.937C314.937 640.182 314.731 641.142 314.317 641.982C313.917 642.808 313.364 643.462 312.657 643.942C311.951 644.408 311.137 644.642 310.217 644.642ZM310.577 649.102C309.631 649.102 308.744 648.915 307.917 648.542C307.091 648.168 306.391 647.622 305.817 646.902C305.644 646.675 305.577 646.442 305.617 646.202C305.671 645.962 305.804 645.768 306.017 645.622C306.257 645.462 306.504 645.408 306.757 645.462C307.024 645.515 307.237 645.648 307.397 645.862C307.757 646.315 308.211 646.668 308.757 646.922C309.304 647.175 309.924 647.302 310.617 647.302C311.257 647.302 311.844 647.148 312.377 646.842C312.924 646.535 313.357 646.082 313.677 645.482C313.997 644.882 314.157 644.148 314.157 643.282V640.442L314.817 638.682L316.117 639.102V643.422C316.117 644.475 315.884 645.428 315.417 646.282C314.951 647.148 314.297 647.835 313.457 648.342C312.631 648.848 311.671 649.102 310.577 649.102ZM310.617 642.842C311.311 642.842 311.924 642.682 312.457 642.362C312.991 642.042 313.404 641.602 313.697 641.042C314.004 640.482 314.157 639.835 314.157 639.102C314.157 638.368 314.004 637.722 313.697 637.162C313.404 636.588 312.991 636.142 312.457 635.822C311.924 635.502 311.311 635.342 310.617 635.342C309.924 635.342 309.311 635.502 308.777 635.822C308.244 636.142 307.824 636.588 307.517 637.162C307.211 637.722 307.057 638.368 307.057 639.102C307.057 639.835 307.211 640.482 307.517 641.042C307.824 641.602 308.244 642.042 308.777 642.362C309.311 642.682 309.924 642.842 310.617 642.842ZM323.734 644.762C322.84 644.762 322.047 644.575 321.354 644.202C320.66 643.815 320.12 643.288 319.734 642.622C319.347 641.955 319.154 641.195 319.154 640.342V634.622C319.18 634.328 319.287 634.088 319.474 633.902C319.66 633.715 319.894 633.622 320.174 633.622C320.48 633.622 320.727 633.715 320.914 633.902C321.1 634.088 321.194 634.335 321.194 634.642V636.882H323.934C324.774 636.882 325.514 637.028 326.154 637.322C326.807 637.615 327.314 638.042 327.674 638.602C328.047 639.162 328.234 639.848 328.234 640.662C328.234 641.528 328.04 642.268 327.654 642.882C327.28 643.495 326.754 643.962 326.074 644.282C325.394 644.602 324.614 644.762 323.734 644.762ZM323.734 642.862C324.48 642.862 325.087 642.682 325.554 642.322C326.034 641.948 326.274 641.395 326.274 640.662C326.274 639.955 326.054 639.435 325.614 639.102C325.174 638.768 324.614 638.602 323.934 638.602H321.194V640.302C321.194 641.048 321.427 641.662 321.894 642.142C322.374 642.622 322.987 642.862 323.734 642.862ZM330.994 644.562C330.7 644.562 330.454 644.468 330.254 644.282C330.067 644.082 329.974 643.835 329.974 643.542V634.642C329.974 634.335 330.067 634.088 330.254 633.902C330.454 633.715 330.7 633.622 330.994 633.622C331.3 633.622 331.547 633.715 331.734 633.902C331.92 634.088 332.014 634.335 332.014 634.642V643.542C332.014 643.835 331.92 644.082 331.734 644.282C331.547 644.468 331.3 644.562 330.994 644.562Z" fill="#313131"/>
<path d="M516.015 209.475C507.229 223.924 500.176 227.041 482.46 223.699C464.381 220.289 448.604 211.116 432.432 202.969C422.134 197.782 409.899 190.367 397.732 191.943C383.406 193.799 373.278 206.911 367.756 219.213C353.802 250.298 372.13 271.318 392.1 292.65C412.729 314.686 422.302 348.394 391.023 366.042C358.966 384.129 323.198 370.806 295.694 350.828C283.635 342.068 272.258 328.169 258.532 321.871C241.593 314.098 225.598 321.394 212.441 332.788C172.697 367.208 169.048 423.63 173.213 472.345C174.664 489.315 177.667 505.537 181.814 521.984C182.626 525.202 183.416 527.388 182.701 530.516" stroke="black" strokeWidth="3" strokeLinecap="round" stroke-dasharray="12 12"/>
<g filter="url(#filter1_d_1695_2228)">
<rect x="345.147" y="331.372" width="74" height="74" rx="37" transform="rotate(135.752 345.147 331.372)" fill="#FF7010" shape-rendering="crispEdges"/>
<path fill-rule="evenodd" clip-rule="evenodd" d="M280.204 343.345C284.901 342.849 292.14 342.087 296.291 341.652C300.442 341.217 304.327 340.81 304.923 340.747L306.008 340.632L306.229 340.831C306.936 341.467 308.243 341.935 309.182 341.89C311.452 341.781 313.288 339.899 313.299 337.67C313.3 337.405 313.21 336.677 313.1 336.054C311.429 326.635 306.554 318.02 299.325 311.713C298.036 310.588 296.42 309.354 295.873 309.076C293.885 308.064 291.373 308.834 290.236 310.802C289.92 311.35 289.666 312.453 289.708 313.102L289.741 313.616L280.336 328.371C275.164 336.486 270.917 343.189 270.898 343.268C270.802 343.662 271.092 344.122 271.49 344.208C271.586 344.229 275.508 343.84 280.204 343.345ZM273.277 342.407C273.292 342.345 275.363 339.076 276.158 337.859L276.548 337.262L276.937 337.537C278.426 338.588 280.504 338.276 281.687 336.822C282.104 336.31 282.12 336.275 282.327 335.423C282.527 334.598 282.532 334.519 282.42 333.976C282.209 332.96 281.476 331.944 280.618 331.477L280.322 331.316L281.58 329.332C282.272 328.241 282.867 327.354 282.901 327.362C282.935 327.37 283.267 327.759 283.639 328.227C284.012 328.696 284.399 329.135 284.5 329.204C285.025 329.565 285.77 329.075 285.67 328.433C285.64 328.244 284.464 326.665 283.832 325.968C283.799 325.932 285.249 323.587 287.12 320.65L290.468 315.398L290.824 315.778C291.02 315.987 291.486 316.388 291.86 316.668C296.653 320.268 300.548 325.328 302.731 330.791C303.617 333.006 304.36 335.578 304.661 337.464C304.709 337.763 304.808 338.268 304.88 338.586C304.973 338.991 304.982 339.166 304.91 339.174C304.854 339.18 304.387 339.228 303.873 339.281C303.359 339.335 302.915 339.355 302.888 339.327C302.86 339.3 302.847 339.143 302.859 338.979C302.922 338.124 302.344 336.876 301.596 336.253C299.899 334.839 297.386 335.27 296.254 337.17C295.8 337.931 295.629 339.066 295.856 339.813L295.942 340.098L295.715 340.127C294.982 340.221 285.796 341.17 285.743 341.157C285.709 341.149 285.648 340.915 285.609 340.637C285.491 339.799 285.104 339.454 284.5 339.647C284.063 339.787 283.945 340.123 284.053 340.925C284.082 341.14 284.086 341.327 284.063 341.339C284.013 341.366 273.403 342.493 273.32 342.48C273.288 342.475 273.268 342.442 273.277 342.407ZM277.709 336.148C277.551 336.029 277.425 335.912 277.431 335.889C277.436 335.866 277.888 335.141 278.434 334.278C279.563 332.495 279.496 332.542 280.162 333.08C281.194 333.913 281.145 335.451 280.063 336.209C279.296 336.746 278.477 336.725 277.709 336.148ZM289.776 338.185C292.113 337.969 293.589 335.621 292.785 333.4C292.341 332.174 291.101 331.233 289.782 331.121C288.038 330.974 286.465 332.092 286.053 333.772C285.666 335.345 286.284 336.882 287.625 337.686C288.199 338.029 289.129 338.245 289.776 338.185ZM297.395 339.442C297.313 339.102 297.319 338.91 297.424 338.484C297.58 337.858 297.846 337.508 298.378 337.229C298.858 336.978 299.246 336.93 299.781 337.057C300.358 337.194 300.796 337.537 301.063 338.064C301.254 338.439 301.348 339.183 301.237 339.428C301.195 339.521 300.715 339.607 299.445 339.749C298.491 339.856 297.662 339.926 297.604 339.905C297.545 339.884 297.451 339.676 297.395 339.442ZM288.404 336.321C288.042 336.109 287.627 335.508 287.529 335.051C287.426 334.575 287.602 333.819 287.905 333.44C288.172 333.104 288.744 332.766 289.154 332.701C289.58 332.634 290.351 332.834 290.69 333.1C291.037 333.372 291.333 333.857 291.415 334.289C291.506 334.769 291.316 335.522 291.008 335.895C290.728 336.235 290.074 336.6 289.695 336.627C289.324 336.654 288.735 336.514 288.404 336.321ZM307.593 339.894C307.138 339.605 306.738 339.141 306.563 338.697C306.482 338.494 306.327 337.833 306.218 337.228C304.647 328.567 299.812 320.68 292.876 315.465C292.502 315.184 292.072 314.817 291.92 314.65C291.147 313.8 291.074 312.373 291.751 311.359C291.951 311.061 292.169 310.869 292.608 310.605C293.117 310.299 293.279 310.246 293.787 310.217C294.821 310.158 295.282 310.408 297.518 312.246C304.939 318.342 309.961 327.017 311.599 336.574C311.771 337.576 311.772 337.652 311.619 338.267C311.403 339.137 311.026 339.604 310.164 340.071C309.503 340.429 308.306 340.347 307.593 339.894ZM308.947 338.426C309.205 338.384 309.486 338.097 309.545 337.815C309.642 337.346 308.699 333.027 308.407 332.604C308.182 332.277 307.725 332.19 307.371 332.406C307.189 332.517 307.076 332.652 307.04 332.802C307.006 332.939 307.14 333.677 307.379 334.679C307.597 335.587 307.837 336.694 307.914 337.14C307.99 337.586 308.101 338.021 308.16 338.108C308.292 338.302 308.7 338.467 308.947 338.426ZM297.829 333.724C298.212 333.52 298.351 333.079 298.147 332.719C297.987 332.437 297.988 332.438 296.507 331.866C295.166 331.348 294.947 331.325 294.65 331.666C294.394 331.961 294.351 332.292 294.531 332.587C294.676 332.825 294.785 332.883 295.87 333.307C297.404 333.906 297.465 333.92 297.829 333.724ZM292.009 328.817C293.545 328.745 294.873 327.762 295.312 326.372C295.645 325.322 295.542 324.374 294.996 323.454C293.648 321.18 290.379 321.138 288.934 323.376C288.59 323.909 288.341 325.027 288.425 325.664C288.56 326.689 289.128 327.611 289.993 328.209C290.458 328.531 291.487 328.842 292.009 328.817ZM298.22 330.054C298.723 329.936 298.808 329.762 298.933 328.589C299.055 327.449 299.002 327.206 298.59 327.02C298.244 326.864 297.863 326.938 297.648 327.202C297.49 327.397 297.463 327.512 297.374 328.382C297.27 329.391 297.277 329.52 297.455 329.781C297.63 330.038 297.892 330.131 298.22 330.054ZM307.465 331.5C307.972 331.191 307.939 330.402 307.407 330.122C306.964 329.889 306.277 330.315 306.281 330.819C306.286 331.41 306.969 331.803 307.465 331.5ZM290.685 326.772C290.166 326.326 289.859 325.418 290.012 324.785C290.099 324.426 290.496 323.874 290.83 323.646C291.363 323.282 291.778 323.207 292.408 323.36C293.009 323.506 293.352 323.755 293.656 324.266C294.405 325.528 293.531 327.157 292.057 327.244C291.663 327.267 290.993 327.036 290.685 326.772Z" fill="white"/>
</g>
<path d="M264.823 259.562C264.557 259.562 264.33 259.462 264.143 259.262C263.957 259.062 263.863 258.822 263.863 258.542V256.022H257.203C256.897 256.022 256.657 255.928 256.483 255.742C256.31 255.555 256.21 255.342 256.183 255.102C256.17 254.848 256.237 254.622 256.383 254.422L264.043 244.382C264.15 244.248 264.27 244.142 264.403 244.062C264.55 243.982 264.71 243.942 264.883 243.942C265.163 243.942 265.39 244.042 265.563 244.242C265.737 244.442 265.823 244.688 265.823 244.982V254.182H267.023C267.303 254.182 267.543 254.248 267.743 254.382C267.943 254.515 268.043 254.755 268.043 255.102C268.043 255.355 267.943 255.575 267.743 255.762C267.543 255.935 267.303 256.022 267.023 256.022H265.823V258.542C265.823 258.822 265.73 259.062 265.543 259.262C265.357 259.462 265.117 259.562 264.823 259.562ZM258.403 254.742L257.863 254.182H263.863V245.942L264.483 246.742L258.403 254.742ZM274.63 259.562C273.616 259.562 272.75 259.255 272.03 258.642C271.323 258.015 270.783 257.122 270.41 255.962C270.036 254.788 269.85 253.382 269.85 251.742C269.85 250.102 270.036 248.702 270.41 247.542C270.783 246.368 271.323 245.475 272.03 244.862C272.75 244.235 273.616 243.922 274.63 243.922C275.643 243.922 276.503 244.242 277.21 244.882C277.93 245.508 278.476 246.408 278.85 247.582C279.223 248.742 279.41 250.128 279.41 251.742C279.41 253.355 279.223 254.748 278.85 255.922C278.476 257.082 277.93 257.982 277.21 258.622C276.503 259.248 275.643 259.562 274.63 259.562ZM274.63 257.482C275.243 257.482 275.75 257.235 276.15 256.742C276.55 256.235 276.85 255.548 277.05 254.682C277.25 253.815 277.35 252.835 277.35 251.742C277.35 250.648 277.25 249.668 277.05 248.802C276.85 247.935 276.55 247.248 276.15 246.742C275.75 246.235 275.243 245.982 274.63 245.982C274.016 245.982 273.51 246.235 273.11 246.742C272.71 247.235 272.41 247.915 272.21 248.782C272.01 249.648 271.91 250.635 271.91 251.742C271.91 252.848 272.01 253.835 272.21 254.702C272.41 255.568 272.71 256.248 273.11 256.742C273.523 257.235 274.03 257.482 274.63 257.482ZM289.091 259.562C288.798 259.562 288.551 259.468 288.351 259.282C288.165 259.082 288.071 258.835 288.071 258.542V249.642C288.071 249.335 288.165 249.088 288.351 248.902C288.551 248.715 288.798 248.622 289.091 248.622C289.518 248.622 289.878 248.828 290.171 249.242L294.311 255.222L298.451 249.242C298.745 248.828 299.105 248.622 299.531 248.622C299.838 248.622 300.085 248.715 300.271 248.902C300.458 249.088 300.551 249.335 300.551 249.642V258.542C300.551 258.835 300.458 259.082 300.271 259.282C300.085 259.468 299.838 259.562 299.531 259.562C299.238 259.562 298.991 259.468 298.791 259.282C298.605 259.082 298.511 258.835 298.511 258.542V251.262L299.031 251.422L295.351 256.622C295.018 257.088 294.658 257.322 294.271 257.322C293.885 257.308 293.531 257.075 293.211 256.622L289.591 251.422L290.111 251.262V258.542C290.111 258.835 290.018 259.082 289.831 259.282C289.645 259.468 289.398 259.562 289.091 259.562ZM308.746 259.662C307.826 259.662 306.999 259.468 306.266 259.082C305.546 258.682 304.972 258.102 304.546 257.342C304.132 256.582 303.926 255.648 303.926 254.542V249.622C303.926 249.328 304.019 249.088 304.206 248.902C304.406 248.702 304.652 248.602 304.946 248.602C305.239 248.602 305.479 248.702 305.666 248.902C305.866 249.088 305.966 249.328 305.966 249.622V254.542C305.966 255.288 306.106 255.908 306.386 256.402C306.666 256.882 307.046 257.242 307.526 257.482C308.006 257.708 308.546 257.822 309.146 257.822C309.719 257.822 310.226 257.708 310.666 257.482C311.119 257.255 311.479 256.948 311.746 256.562C312.012 256.175 312.146 255.742 312.146 255.262H313.406C313.406 256.088 313.199 256.835 312.786 257.502C312.386 258.168 311.832 258.695 311.126 259.082C310.432 259.468 309.639 259.662 308.746 259.662ZM313.166 259.562C312.872 259.562 312.626 259.468 312.426 259.282C312.239 259.082 312.146 258.835 312.146 258.542V249.622C312.146 249.315 312.239 249.068 312.426 248.882C312.626 248.695 312.872 248.602 313.166 248.602C313.472 248.602 313.719 248.695 313.906 248.882C314.092 249.068 314.186 249.315 314.186 249.622V258.542C314.186 258.835 314.092 259.082 313.906 259.282C313.719 259.468 313.472 259.562 313.166 259.562ZM326.979 259.562C326.685 259.562 326.439 259.468 326.239 259.282C326.052 259.082 325.959 258.835 325.959 258.542V249.642C325.959 249.335 326.052 249.088 326.239 248.902C326.439 248.715 326.685 248.622 326.979 248.622C327.285 248.622 327.525 248.715 327.699 248.902C327.872 249.088 327.959 249.335 327.959 249.642V258.542C327.959 258.835 327.872 259.082 327.699 259.282C327.525 259.468 327.285 259.562 326.979 259.562ZM318.759 259.562C318.465 259.562 318.225 259.468 318.039 259.282C317.865 259.082 317.779 258.835 317.779 258.542V249.642C317.779 249.335 317.865 249.088 318.039 248.902C318.225 248.715 318.465 248.622 318.759 248.622C319.065 248.622 319.312 248.715 319.499 248.902C319.685 249.088 319.779 249.335 319.779 249.642V258.542C319.779 258.835 319.685 259.082 319.499 259.282C319.312 259.468 319.065 259.562 318.759 259.562ZM319.519 254.782V252.982H326.539V254.782H319.519ZM269.453 281.562C269.159 281.562 268.913 281.468 268.713 281.282C268.526 281.082 268.433 280.835 268.433 280.542V271.642C268.433 271.335 268.526 271.088 268.713 270.902C268.913 270.715 269.159 270.622 269.453 270.622C269.879 270.622 270.239 270.828 270.533 271.242L274.673 277.222L278.813 271.242C279.106 270.828 279.466 270.622 279.893 270.622C280.199 270.622 280.446 270.715 280.633 270.902C280.819 271.088 280.913 271.335 280.913 271.642V280.542C280.913 280.835 280.819 281.082 280.633 281.282C280.446 281.468 280.199 281.562 279.893 281.562C279.599 281.562 279.353 281.468 279.153 281.282C278.966 281.082 278.873 280.835 278.873 280.542V273.262L279.393 273.422L275.713 278.622C275.379 279.088 275.019 279.322 274.633 279.322C274.246 279.308 273.893 279.075 273.573 278.622L269.953 273.422L270.473 273.262V280.542C270.473 280.835 270.379 281.082 270.193 281.282C270.006 281.468 269.759 281.562 269.453 281.562ZM289.067 281.642C288.094 281.642 287.22 281.402 286.447 280.922C285.674 280.428 285.06 279.768 284.607 278.942C284.167 278.102 283.947 277.155 283.947 276.102C283.947 275.048 284.187 274.102 284.667 273.262C285.16 272.422 285.82 271.762 286.647 271.282C287.487 270.788 288.427 270.542 289.467 270.542C290.507 270.542 291.44 270.788 292.267 271.282C293.094 271.762 293.747 272.422 294.227 273.262C294.72 274.102 294.967 275.048 294.967 276.102H294.187C294.187 277.155 293.96 278.102 293.507 278.942C293.067 279.768 292.46 280.428 291.687 280.922C290.914 281.402 290.04 281.642 289.067 281.642ZM289.467 279.842C290.147 279.842 290.754 279.682 291.287 279.362C291.82 279.028 292.24 278.582 292.547 278.022C292.854 277.448 293.007 276.808 293.007 276.102C293.007 275.382 292.854 274.742 292.547 274.182C292.24 273.608 291.82 273.162 291.287 272.842C290.754 272.508 290.147 272.342 289.467 272.342C288.8 272.342 288.194 272.508 287.647 272.842C287.114 273.162 286.687 273.608 286.367 274.182C286.06 274.742 285.907 275.382 285.907 276.102C285.907 276.808 286.06 277.448 286.367 278.022C286.687 278.582 287.114 279.028 287.647 279.362C288.194 279.682 288.8 279.842 289.467 279.842ZM293.947 281.582C293.654 281.582 293.407 281.488 293.207 281.302C293.02 281.102 292.927 280.855 292.927 280.562V277.502L293.307 275.382L294.967 276.102V280.562C294.967 280.855 294.867 281.102 294.667 281.302C294.48 281.488 294.24 281.582 293.947 281.582ZM306.883 281.322C306.71 281.482 306.463 281.562 306.143 281.562C305.836 281.548 305.596 281.455 305.423 281.282L300.563 276.062L305.143 270.942C305.316 270.755 305.556 270.648 305.863 270.622C306.183 270.595 306.43 270.662 306.603 270.822C306.803 271.008 306.916 271.222 306.943 271.462C306.97 271.688 306.896 271.895 306.723 272.082L303.103 275.962L306.943 280.082C307.116 280.255 307.203 280.462 307.203 280.702C307.203 280.928 307.096 281.135 306.883 281.322ZM298.963 281.582C298.67 281.582 298.436 281.488 298.263 281.302C298.09 281.102 298.003 280.855 298.003 280.562V271.642C298.003 271.335 298.09 271.088 298.263 270.902C298.436 270.715 298.67 270.622 298.963 270.622C299.27 270.622 299.516 270.715 299.703 270.902C299.903 271.088 300.003 271.335 300.003 271.642V274.982H302.563V276.862H300.003V280.562C300.003 280.855 299.903 281.102 299.703 281.302C299.516 281.488 299.27 281.582 298.963 281.582ZM313.666 281.642C312.6 281.642 311.646 281.402 310.806 280.922C309.98 280.428 309.326 279.768 308.846 278.942C308.38 278.102 308.146 277.155 308.146 276.102C308.146 275.022 308.38 274.062 308.846 273.222C309.313 272.382 309.953 271.728 310.766 271.262C311.58 270.782 312.513 270.542 313.566 270.542C314.353 270.542 315.073 270.695 315.726 271.002C316.38 271.295 316.966 271.742 317.486 272.342C317.673 272.555 317.74 272.775 317.686 273.002C317.633 273.228 317.486 273.428 317.246 273.602C317.06 273.735 316.853 273.782 316.626 273.742C316.4 273.688 316.193 273.568 316.006 273.382C315.353 272.688 314.54 272.342 313.566 272.342C312.886 272.342 312.286 272.502 311.766 272.822C311.246 273.128 310.84 273.562 310.546 274.122C310.253 274.682 310.106 275.342 310.106 276.102C310.106 276.822 310.253 277.462 310.546 278.022C310.853 278.582 311.273 279.028 311.806 279.362C312.34 279.682 312.96 279.842 313.666 279.842C314.133 279.842 314.54 279.788 314.886 279.682C315.246 279.562 315.573 279.382 315.866 279.142C316.08 278.968 316.3 278.875 316.526 278.862C316.753 278.835 316.953 278.895 317.126 279.042C317.353 279.228 317.48 279.442 317.506 279.682C317.533 279.908 317.453 280.115 317.266 280.302C316.306 281.195 315.106 281.642 313.666 281.642Z" fill="#313131"/>
<defs>
<filter id="filter0_f_1695_2228" x="490.951" y="86.0759" width="96.0061" height="96.0061" filterUnits="userSpaceOnUse" color-interpolation-filters="sRGB">
<feFlood flood-opacity="0" result="BackgroundImageFix"/>
<feBlend mode="normal" in="SourceGraphic" in2="BackgroundImageFix" result="shape"/>
<feGaussianBlur stdDeviation="17" result="effect1_foregroundBlur_1695_2228"/>
</filter>
<filter id="filter1_d_1695_2228" x="223.504" y="261.364" width="138.643" height="138.643" filterUnits="userSpaceOnUse" color-interpolation-filters="sRGB">
<feFlood flood-opacity="0" result="BackgroundImageFix"/>
<feColorMatrix in="SourceAlpha" type="matrix" values="0 0 0 0 0 0 0 0 0 0 0 0 0 0 0 0 0 0 127 0" result="hardAlpha"/>
<feOffset/>
<feGaussianBlur stdDeviation="8.5"/>
<feComposite in2="hardAlpha" operator="out"/>
<feColorMatrix type="matrix" values="0 0 0 0 0.354167 0 0 0 0 0.347378 0 0 0 0 0.347378 0 0 0 0.25 0"/>
<feBlend mode="normal" in2="BackgroundImageFix" result="effect1_dropShadow_1695_2228"/>
<feBlend mode="normal" in="SourceGraphic" in2="effect1_dropShadow_1695_2228" result="shape"/>
</filter>
<clipPath id="clip0_1695_2228">
<rect x="491.451" y="147.44" width="70" height="70" rx="35" transform="rotate(-61.1437 491.451 147.44)" fill="white"/>
</clipPath>
</defs>
</svg>
