<svg width="218" height="173" viewBox="0 0 218 173" fill="none" xmlns="http://www.w3.org/2000/svg">
<g filter="url(#filter0_f_1695_2313)">
<path fill-rule="evenodd" clip-rule="evenodd" d="M2.89429 16.8215C2.89429 15.7169 3.78972 14.8215 4.89429 14.8215C9.29788 14.8215 18.364 13.3155 29.8704 11.2884C31.2991 11.0367 32.7623 10.7776 34.2546 10.5134L34.2586 10.5127L34.2594 10.5125C44.6652 8.66994 56.4926 6.57563 68.0013 4.9715C81.1386 3.14038 93.9994 1.92665 103.947 2.48428C108.91 2.76245 113.301 3.48776 116.681 4.89183C120.075 6.30212 122.734 8.5314 123.591 11.9325C125.756 20.5227 121.408 27.757 115.717 33.3691C110.273 38.7384 103.206 43.0229 98.1672 46.0781L97.9145 46.2313L97.4752 46.4979C89.7324 51.1996 81.6374 54.8792 73.5274 58.3089C71.169 59.3062 68.8157 60.28 66.4693 61.2509L66.4688 61.2512L66.4687 61.2512C60.7052 63.6361 54.983 66.0039 49.3276 68.6623C41.5241 72.3306 34.2131 76.9956 29.2052 83.0075C24.2516 88.9544 21.5207 96.2453 22.8389 105.412C25.8421 126.295 43.553 143.232 63.212 149.939C91.4484 159.573 125.164 155.883 154.825 152.637L155.213 152.594C171.353 150.828 187.082 147.722 202.95 144.108C203.438 143.997 203.916 143.891 204.383 143.787C206.017 143.424 207.528 143.089 208.972 142.648C202.723 137.715 196.5 132.755 190.283 127.791C190.14 127.678 190.002 127.566 189.866 127.458C188.963 126.733 188.199 126.12 187.341 125.608C186.392 125.043 186.081 123.816 186.646 122.867C187.212 121.918 188.439 121.607 189.388 122.172C190.505 122.837 191.505 123.642 192.39 124.354L192.391 124.354L192.591 124.515C192.654 124.566 192.717 124.616 192.778 124.665C199.687 130.181 206.594 135.686 213.534 141.151C214.138 141.254 214.688 141.633 214.985 142.223C215.415 143.076 215.176 144.09 214.466 144.671C214.164 144.988 213.777 145.187 213.368 145.26C213.295 145.293 213.222 145.326 213.148 145.359C212.887 145.637 212.625 145.999 212.345 146.455C212.091 146.868 211.909 147.202 211.71 147.567L211.71 147.568C211.552 147.858 211.383 148.168 211.159 148.553C210.363 149.921 209.565 151.218 208.784 152.49L208.783 152.49C207.369 154.791 206.005 157.011 204.786 159.421C204.284 160.413 203.786 161.375 203.295 162.322L203.292 162.327C202.107 164.614 200.966 166.814 199.934 169.149L199.928 169.164L199.919 169.187L199.913 169.202L199.909 169.213L199.903 169.228L199.898 169.238L199.892 169.254L199.886 169.268L199.873 169.296L199.859 169.329L199.787 169.493L199.708 169.673L199.674 169.75L199.659 169.783L199.646 169.813L199.639 169.828L199.631 169.845L199.625 169.857L199.617 169.874L199.611 169.887L199.603 169.904L199.589 169.932L199.578 169.952L199.563 169.98C199.557 169.99 199.545 170.012 199.538 170.024C199.534 170.03 199.529 170.039 199.523 170.049C199.513 170.065 199.502 170.083 199.493 170.096C199.474 170.125 199.423 170.199 199.39 170.242C199.329 170.316 199.121 170.525 198.962 170.649C198.474 170.9 196.933 170.809 196.161 170.14C195.935 169.701 195.813 169.036 195.819 168.851C195.828 168.763 195.851 168.623 195.862 168.572C195.869 168.539 195.884 168.484 195.89 168.461C195.895 168.444 195.904 168.414 195.908 168.401L195.92 168.364L195.929 168.339L195.936 168.321L195.945 168.296L195.952 168.279L195.96 168.258L195.966 168.244L195.974 168.224L195.989 168.189L196.007 168.147L196.058 168.027C197.204 165.38 198.513 162.853 199.801 160.37L199.801 160.369C200.279 159.447 200.754 158.53 201.217 157.616C202.502 155.073 204.028 152.588 205.502 150.186L205.503 150.184C206.117 149.185 206.721 148.2 207.296 147.231C206.587 147.399 205.884 147.554 205.191 147.707L205.191 147.707L205.188 147.707C204.734 147.807 204.283 147.907 203.838 148.008C187.904 151.637 172.006 154.78 155.648 156.57L154.804 156.663C125.462 159.875 91.0037 163.647 61.9204 153.725C41.2431 146.67 22.1516 128.734 18.8796 105.981C17.3827 95.5717 20.5354 87.166 26.1318 80.4474C31.6739 73.794 39.5793 68.8249 47.6259 65.0424C53.3716 62.3414 59.2304 59.9171 65.0289 57.5177L65.0296 57.5174C67.3563 56.5546 69.6733 55.5958 71.9694 54.6248C80.0291 51.2164 87.9096 47.6268 95.399 43.0789L95.9954 42.717L95.9955 42.7169C101.101 39.6198 107.808 35.5508 112.909 30.521C118.218 25.2849 121.359 19.4441 119.712 12.9101C119.281 11.1985 117.902 9.73076 115.146 8.58569C112.375 7.43438 108.503 6.74596 103.723 6.47802C94.1864 5.94342 81.6489 7.10792 68.5535 8.9332C57.1236 10.5264 45.3746 12.6067 34.9627 14.4502L34.9621 14.4503L34.9603 14.4507C33.4658 14.7153 31.9989 14.975 30.5644 15.2277C19.2498 17.2211 9.74065 18.8215 4.89429 18.8215C3.78972 18.8215 2.89429 17.9261 2.89429 16.8215ZM196.101 168.046L196.105 168.027L197.894 168.821L199.685 169.616C199.666 169.643 199.647 169.669 199.631 169.69C199.547 169.79 199.174 170.114 198.856 170.289C197.735 170.428 196.276 169.363 196.07 168.667C196.058 168.452 196.082 168.148 196.098 168.058L196.101 168.046Z" fill="#FFB2A3"/>
</g>
<defs>
<filter id="filter0_f_1695_2313" x="0.894531" y="0.347656" width="216.305" height="172.429" filterUnits="userSpaceOnUse" color-interpolation-filters="sRGB">
<feFlood flood-opacity="0" result="BackgroundImageFix"/>
<feBlend mode="normal" in="SourceGraphic" in2="BackgroundImageFix" result="shape"/>
<feGaussianBlur stdDeviation="1" result="effect1_foregroundBlur_1695_2313"/>
</filter>
</defs>
</svg>
