<svg width="13" height="19" viewBox="0 0 13 19" fill="none" xmlns="http://www.w3.org/2000/svg">
<path d="M9.26815 0.651408C10.148 0.828442 11.0447 1.19585 11.9463 1.7487C13.1434 2.48274 13.092 2.35598 12.5298 3.18779C12.2045 3.66916 12.0074 3.89277 11.933 3.86493C11.8718 3.84211 11.5511 3.64518 11.2201 3.42744C9.76258 2.4684 8.30244 2.11364 6.78441 2.34981C2.39116 3.03335 0.368172 7.98345 3.05505 11.4753C4.08741 12.8169 5.63185 13.5896 7.43533 13.6667C8.9158 13.73 9.80038 13.4668 11.2704 12.5255C11.6628 12.2742 11.9961 12.0687 12.0108 12.0687C12.0609 12.0687 13.0308 13.5367 12.9992 13.5647C12.7868 13.7538 11.0931 14.7263 10.6717 14.9012C8.16446 15.9416 5.26298 15.5942 3.07276 13.9914C-1.1701 10.8866 -0.988785 4.64971 3.4289 1.74176C5.07242 0.659812 7.27047 0.249379 9.26815 0.651408Z" fill="black"/>
<rect x="0.394531" y="16.6497" width="12.2562" height="1.85053" fill="black"/>
</svg>
