<svg width="244" height="244" viewBox="0 0 244 244" fill="none" xmlns="http://www.w3.org/2000/svg">
<path d="M122 4C56.8286 4 4 56.8286 4 122C4 187.171 56.8286 240 122 240C187.171 240 240 187.171 240 122C240 56.8286 187.171 4 122 4Z" stroke="#292929" stroke-width="6.5" stroke-linecap="round" stroke-linejoin="round"/>
<path d="M30.7969 196.883C30.7969 196.883 57.0991 163.3 121.999 163.3C186.899 163.3 213.213 196.883 213.213 196.883M121.999 122C131.388 122 140.392 118.271 147.031 111.632C153.67 104.993 157.399 95.9889 157.399 86.6002C157.399 77.2115 153.67 68.2074 147.031 61.5686C140.392 54.9298 131.388 51.2002 121.999 51.2002C112.61 51.2002 103.606 54.9298 96.9675 61.5686C90.3287 68.2074 86.5991 77.2115 86.5991 86.6002C86.5991 95.9889 90.3287 104.993 96.9675 111.632C103.606 118.271 112.61 122 121.999 122V122Z" stroke="#292929" stroke-width="6.5" stroke-linecap="round" stroke-linejoin="round"/>
</svg>
